<mxfile host="65bd71144e">
    <diagram id="NT8e3vaknNyX6GdxTAT5" name="Page-2">
        <mxGraphModel dx="1261" dy="909" grid="1" gridSize="10" guides="1" tooltips="1" connect="1" arrows="1" fold="1" page="1" pageScale="1" pageWidth="4681" pageHeight="3300" math="0" shadow="0">
            <root>
                <mxCell id="0"/>
                <mxCell id="1" parent="0"/>
                <mxCell id="YRzpi_OB6vSxo1CWv5hD-3" value="" style="edgeStyle=none;html=1;" edge="1" parent="1" source="YRzpi_OB6vSxo1CWv5hD-1" target="YRzpi_OB6vSxo1CWv5hD-2">
                    <mxGeometry relative="1" as="geometry"/>
                </mxCell>
                <mxCell id="YRzpi_OB6vSxo1CWv5hD-1" value="Start" style="whiteSpace=wrap;html=1;rounded=1;" vertex="1" parent="1">
                    <mxGeometry x="700" y="60" width="120" height="60" as="geometry"/>
                </mxCell>
                <mxCell id="YRzpi_OB6vSxo1CWv5hD-5" value="" style="edgeStyle=none;html=1;" edge="1" parent="1" source="YRzpi_OB6vSxo1CWv5hD-2" target="YRzpi_OB6vSxo1CWv5hD-4">
                    <mxGeometry relative="1" as="geometry"/>
                </mxCell>
                <mxCell id="YRzpi_OB6vSxo1CWv5hD-2" value="Initialise Deck" style="whiteSpace=wrap;html=1;rounded=0;" vertex="1" parent="1">
                    <mxGeometry x="700" y="160" width="120" height="60" as="geometry"/>
                </mxCell>
                <mxCell id="YRzpi_OB6vSxo1CWv5hD-7" value="" style="edgeStyle=none;html=1;" edge="1" parent="1" source="YRzpi_OB6vSxo1CWv5hD-4" target="YRzpi_OB6vSxo1CWv5hD-6">
                    <mxGeometry relative="1" as="geometry"/>
                </mxCell>
                <mxCell id="YRzpi_OB6vSxo1CWv5hD-4" value="Polpulate Deck" style="whiteSpace=wrap;html=1;rounded=0;" vertex="1" parent="1">
                    <mxGeometry x="700" y="270" width="120" height="60" as="geometry"/>
                </mxCell>
                <mxCell id="c6aAXqkdZ3cUjr3Q7yci-2" style="edgeStyle=none;html=1;exitX=0.5;exitY=1;exitDx=0;exitDy=0;entryX=0.5;entryY=0;entryDx=0;entryDy=0;" edge="1" parent="1" source="YRzpi_OB6vSxo1CWv5hD-6" target="c6aAXqkdZ3cUjr3Q7yci-1">
                    <mxGeometry relative="1" as="geometry"/>
                </mxCell>
                <mxCell id="YRzpi_OB6vSxo1CWv5hD-6" value="Shuffle Deck" style="whiteSpace=wrap;html=1;rounded=0;" vertex="1" parent="1">
                    <mxGeometry x="700" y="390" width="120" height="60" as="geometry"/>
                </mxCell>
                <mxCell id="c6aAXqkdZ3cUjr3Q7yci-5" style="edgeStyle=none;html=1;exitX=0.5;exitY=1;exitDx=0;exitDy=0;entryX=0.5;entryY=0;entryDx=0;entryDy=0;" edge="1" parent="1" source="YRzpi_OB6vSxo1CWv5hD-8" target="c6aAXqkdZ3cUjr3Q7yci-4">
                    <mxGeometry relative="1" as="geometry"/>
                </mxCell>
                <mxCell id="YRzpi_OB6vSxo1CWv5hD-8" value="Assign Player two cards from deck" style="whiteSpace=wrap;html=1;rounded=0;" vertex="1" parent="1">
                    <mxGeometry x="700" y="610" width="120" height="60" as="geometry"/>
                </mxCell>
                <mxCell id="YRzpi_OB6vSxo1CWv5hD-13" value="" style="edgeStyle=none;html=1;" edge="1" parent="1" source="YRzpi_OB6vSxo1CWv5hD-10" target="YRzpi_OB6vSxo1CWv5hD-12">
                    <mxGeometry relative="1" as="geometry"/>
                </mxCell>
                <mxCell id="YRzpi_OB6vSxo1CWv5hD-10" value="Assign Dealer two cards from deck" style="whiteSpace=wrap;html=1;rounded=0;" vertex="1" parent="1">
                    <mxGeometry x="700" y="820" width="120" height="60" as="geometry"/>
                </mxCell>
                <mxCell id="YRzpi_OB6vSxo1CWv5hD-15" value="" style="edgeStyle=none;html=1;" edge="1" parent="1" source="YRzpi_OB6vSxo1CWv5hD-12" target="YRzpi_OB6vSxo1CWv5hD-14">
                    <mxGeometry relative="1" as="geometry"/>
                </mxCell>
                <mxCell id="YRzpi_OB6vSxo1CWv5hD-12" value="Total of PlayersHand = PlayersHandTotal" style="whiteSpace=wrap;html=1;rounded=0;" vertex="1" parent="1">
                    <mxGeometry x="700" y="920" width="120" height="60" as="geometry"/>
                </mxCell>
                <mxCell id="YRzpi_OB6vSxo1CWv5hD-17" value="" style="edgeStyle=none;html=1;" edge="1" parent="1" source="YRzpi_OB6vSxo1CWv5hD-14" target="YRzpi_OB6vSxo1CWv5hD-16">
                    <mxGeometry relative="1" as="geometry"/>
                </mxCell>
                <mxCell id="YRzpi_OB6vSxo1CWv5hD-14" value="Total of DealersHand = DealersHandTotal" style="whiteSpace=wrap;html=1;rounded=0;" vertex="1" parent="1">
                    <mxGeometry x="700" y="1040" width="120" height="60" as="geometry"/>
                </mxCell>
                <mxCell id="YRzpi_OB6vSxo1CWv5hD-19" value="" style="edgeStyle=none;html=1;" edge="1" parent="1" source="YRzpi_OB6vSxo1CWv5hD-16" target="YRzpi_OB6vSxo1CWv5hD-18">
                    <mxGeometry relative="1" as="geometry"/>
                </mxCell>
                <mxCell id="YRzpi_OB6vSxo1CWv5hD-16" value="Output: PlayersHand" style="shape=parallelogram;perimeter=parallelogramPerimeter;whiteSpace=wrap;html=1;fixedSize=1;rounded=0;" vertex="1" parent="1">
                    <mxGeometry x="700" y="1160" width="120" height="60" as="geometry"/>
                </mxCell>
                <mxCell id="YRzpi_OB6vSxo1CWv5hD-21" value="" style="edgeStyle=none;html=1;" edge="1" parent="1" source="YRzpi_OB6vSxo1CWv5hD-18" target="YRzpi_OB6vSxo1CWv5hD-20">
                    <mxGeometry relative="1" as="geometry"/>
                </mxCell>
                <mxCell id="YRzpi_OB6vSxo1CWv5hD-18" value="Output: PlayersHandTotal" style="shape=parallelogram;perimeter=parallelogramPerimeter;whiteSpace=wrap;html=1;fixedSize=1;rounded=0;" vertex="1" parent="1">
                    <mxGeometry x="700" y="1270" width="120" height="60" as="geometry"/>
                </mxCell>
                <mxCell id="yTKSuM095QEjrO4_mgV6-1" style="edgeStyle=none;html=1;exitX=0.5;exitY=1;exitDx=0;exitDy=0;" edge="1" parent="1" source="YRzpi_OB6vSxo1CWv5hD-20" target="c6aAXqkdZ3cUjr3Q7yci-7">
                    <mxGeometry relative="1" as="geometry"/>
                </mxCell>
                <mxCell id="YRzpi_OB6vSxo1CWv5hD-20" value="Output: 0 from DealerHand list AND value of 0 from DealerHand list&amp;nbsp;" style="shape=parallelogram;perimeter=parallelogramPerimeter;whiteSpace=wrap;html=1;fixedSize=1;rounded=0;" vertex="1" parent="1">
                    <mxGeometry x="690" y="1370" width="140" height="60" as="geometry"/>
                </mxCell>
                <mxCell id="c6aAXqkdZ3cUjr3Q7yci-3" style="edgeStyle=none;html=1;exitX=0.5;exitY=1;exitDx=0;exitDy=0;entryX=0.5;entryY=0;entryDx=0;entryDy=0;" edge="1" parent="1" source="c6aAXqkdZ3cUjr3Q7yci-1" target="YRzpi_OB6vSxo1CWv5hD-8">
                    <mxGeometry relative="1" as="geometry"/>
                </mxCell>
                <mxCell id="c6aAXqkdZ3cUjr3Q7yci-1" value="Remove two cards from deck" style="whiteSpace=wrap;html=1;rounded=0;" vertex="1" parent="1">
                    <mxGeometry x="700" y="500" width="120" height="60" as="geometry"/>
                </mxCell>
                <mxCell id="c6aAXqkdZ3cUjr3Q7yci-6" style="edgeStyle=none;html=1;exitX=0.5;exitY=1;exitDx=0;exitDy=0;" edge="1" parent="1" source="c6aAXqkdZ3cUjr3Q7yci-4" target="YRzpi_OB6vSxo1CWv5hD-10">
                    <mxGeometry relative="1" as="geometry"/>
                </mxCell>
                <mxCell id="c6aAXqkdZ3cUjr3Q7yci-4" value="Remove two cards from deck" style="whiteSpace=wrap;html=1;rounded=0;" vertex="1" parent="1">
                    <mxGeometry x="700" y="710" width="120" height="60" as="geometry"/>
                </mxCell>
                <mxCell id="c6aAXqkdZ3cUjr3Q7yci-7" value="End" style="whiteSpace=wrap;html=1;rounded=1;" vertex="1" parent="1">
                    <mxGeometry x="700" y="1470" width="120" height="60" as="geometry"/>
                </mxCell>
            </root>
        </mxGraphModel>
    </diagram>
</mxfile>